<svg xmlns="http://www.w3.org/2000/svg" xmlns:xlink="http://www.w3.org/1999/xlink" width="2302" height="600" viewBox="0 0 2302 600">
  <g id="etwas" data-name="etwas" clip-path="url(#etwas)">
    <g id="Signet">
      <path id="1" data-name="1" d="M566.667,300H700c0,220.914-179.086,400-400,400V566.667C447.28,566.667,566.667,447.28,566.667,300Z" transform="translate(-300 -300)" fill="#FFF"/>
      <path id="2" data-name="2" d="M400,0V400H0C0,179.086,179.086,0,400,0Z" transform="translate(200 200)" fill="#FFF"/>
    </g>
    <path id="Type" d="M-3766.845-292.674q-31.972-22.675-33.133-58.721l56.965-6.394q3.487,19.767,18.311,30.813t36.911,11.047q23.25,0,36.039-10.465t12.788-27.907q0-14.535-9.3-22.674t-30.807-15.116l-37.2-11.628q-73.241-23.256-73.241-79.651,0-36.628,29.063-59.884t72.079-23.256q43.6,0,70.916,20.639t30.227,54.942l-55.221,6.4q-2.906-17.443-15.4-26.745t-31.68-9.3q-19.763,0-31.97,9.3t-12.208,23.257q0,13.953,9.011,21.8t29.353,14.243l37.2,11.628q40.107,12.79,58.128,31.1T-3582-359.535q0,40.115-29.355,64.826t-77.6,24.709Q-3734.876-270-3766.845-292.674Zm-344.989-20.639q-42.723-43.314-42.723-104.942t42.723-104.942q42.724-43.314,104.34-43.313,63.36,0,104.63,44.768V-560.7h56.383v284.884h-56.383v-40.7Q-3944.717-270-4007.495-270-4069.11-270-4111.834-313.314Zm44.469-174.709q-27.9,28.488-27.9,69.767t27.9,69.768q27.9,28.488,68.009,28.488t68.3-28.78q28.192-28.779,28.192-69.477t-28.192-69.477q-28.192-28.779-68.3-28.778T-4067.366-488.023Zm-1073.91,175Q-5184-356.047-5184-418.256q0-61.627,43.6-104.942t106.955-43.313q63.941,0,106.665,41.86t42.724,100.581v21.512h-243.555q4.65,36.628,31.388,60.756t63.359,24.127q31.39,0,55.8-15.407t34.295-40.407l49.41,14.535q-15.114,40.7-53.768,64.826T-5032.868-270Q-5098.552-270-5141.276-313.024Zm50.572-186.628q-24.7,19.185-33.423,50.582h181.357a97.044,97.044,0,0,0-33.423-50q-24.7-19.767-57.256-19.768T-5090.7-499.651Zm755.951,223.838-78.473-216.28-79.054,216.28h-54.058L-4649.806-560.7h56.383l76.729,218.022,76.729-218.022h54.64l76.729,218.022,76.148-218.022h54.64L-4280.7-275.813Zm-462.7,0V-509.535h-63.359V-560.7h63.359v-50.582L-4738.742-670v109.3h65.684v51.162h-65.684v233.722Z" transform="translate(5884 770)" fill="#FFF"/>
  </g>
</svg>
