<svg xmlns="http://www.w3.org/2000/svg" width="1842" height="283" viewBox="0 0 1842 283">
  <g id="Group_79" data-name="Group 79" transform="translate(1652 77)">
    <circle id="Ellipse_6" data-name="Ellipse 6" cx="32.5" cy="32.5" r="32.5" transform="translate(-33 96)" fill="rgba(21,212,167,0.2)"/>
    <circle id="Ellipse_7" data-name="Ellipse 7" cx="32.5" cy="32.5" r="32.5" transform="translate(-175 141)" fill="rgba(20,19,48,0.1)"/>
    <circle id="Ellipse_10" data-name="Ellipse 10" cx="28" cy="28" r="28" transform="translate(-1559 67)" fill="rgba(20,19,48,0.15)"/>
    <circle id="Ellipse_11" data-name="Ellipse 11" cx="32.5" cy="32.5" r="32.5" transform="translate(0 75)" fill="rgba(21,212,167,0.3)"/>
    <circle id="Ellipse_12" data-name="Ellipse 12" cx="25.5" cy="25.5" r="25.5" transform="translate(-122 129)" fill="rgba(20,19,48,0.1)"/>
    <circle id="Ellipse_13" data-name="Ellipse 13" cx="33" cy="33" r="33" transform="translate(-1455 57)" fill="rgba(21,212,167,0.3)"/>
    <circle id="Ellipse_15" data-name="Ellipse 15" cx="8.5" cy="8.5" r="8.5" transform="translate(-75 88)" fill="rgba(21,212,167,0.2)"/>
    <ellipse id="Ellipse_19" data-name="Ellipse 19" cx="32" cy="0.5" rx="32" ry="0.5" transform="translate(-1652 -77)" fill="rgba(21,212,167,0.2)"/>
    <circle id="Ellipse_20" data-name="Ellipse 20" cx="51" cy="51" r="51" transform="translate(-1636 90)" fill="rgba(20,19,48,0.15)"/>
    <circle id="Ellipse_21" data-name="Ellipse 21" cx="19.5" cy="19.5" r="19.5" transform="translate(-1428 -30)" fill="rgba(20,19,48,0.15)"/>
    <circle id="Ellipse_22" data-name="Ellipse 22" cx="12.5" cy="12.5" r="12.5" transform="translate(110 129)" fill="rgba(20,19,48,0.1)"/>
    <circle id="Ellipse_9" data-name="Ellipse 9" cx="38" cy="38" r="38" transform="translate(114 -33.486)" fill="rgba(21,212,167,0.2)"/>
    <circle id="Ellipse_14" data-name="Ellipse 14" cx="31.5" cy="31.5" r="31.5" transform="translate(84 20)" fill="rgba(20,19,48,0.2)"/>
    <circle id="Ellipse_23" data-name="Ellipse 23" cx="10.5" cy="10.5" r="10.5" transform="translate(-1574 -2)" fill="rgba(21,212,167,0.3)"/>
    <circle id="Ellipse_24" data-name="Ellipse 24" cx="10.5" cy="10.5" r="10.5" transform="translate(-1562 -10)" fill="rgba(21,212,167,0.3)"/>
    <circle id="Ellipse_25" data-name="Ellipse 25" cx="12.5" cy="12.5" r="12.5" transform="translate(-1551 -27)" fill="rgba(20,19,48,0.15)"/>
    <circle id="Ellipse_26" data-name="Ellipse 26" cx="22" cy="22" r="22" transform="translate(-27 -6)" fill="rgba(20,19,48,0.2)"/>
    <circle id="Ellipse_27" data-name="Ellipse 27" cx="21" cy="21" r="21" transform="translate(-45 11)" fill="rgba(21,212,167,0.2)"/>
  </g>
</svg>
