
<svg xmlns="http://www.w3.org/2000/svg" width="271.101" height="56.724" viewBox="0 0 271.101 56.724">
  <g id="logo1" transform="translate(-22.755 -22.755)">
    <g id="Group_16" data-name="Group 16" transform="translate(23.255 23.255)">
      <g id="Group_11" data-name="Group 11" transform="translate(5.334 5.334)">
        <path id="Path_9" data-name="Path 9" d="M181.89,217.009l3.12-3.119h26.213v-16h13.333v-16H181.89Z" transform="translate(-181.89 -181.89)" fill="rgba(21,212,164,0.3)"/>
        <g id="Group_10" data-name="Group 10">
          <path id="Path_10" data-name="Path 10" d="M181.89,217.009l3.12-3.119h26.213v-16h13.333v-16H181.89Z" transform="translate(-181.89 -181.89)" fill="rgba(0,0,0,0)" stroke="rgba(0,0,0,0)" stroke-width="1"/>
        </g>
      </g>
      <g id="Group_13" data-name="Group 13">
        <path id="Path_11" data-name="Path 11" d="M152.694,187.813V152.694H195.36v16h5.334v-16a5.35,5.35,0,0,0-5.334-5.334H152.694a5.327,5.327,0,0,0-5.307,5.334q0,4.8-.026,48l10.667-10.667h24v-5.332H155.814Z" transform="translate(-147.36 -147.36)" fill="#15d4a4"/>
        <g id="Group_12" data-name="Group 12">
          <path id="Path_12" data-name="Path 12" d="M152.694,187.813V152.694H195.36v16h5.334v-16a5.35,5.35,0,0,0-5.334-5.334H152.694a5.327,5.327,0,0,0-5.307,5.334q0,4.8-.026,48l10.667-10.667h24v-5.332H155.814Z" transform="translate(-147.36 -147.36)" fill="rgba(0,0,0,0)" stroke="rgba(0,0,0,0)" stroke-width="1"/>
        </g>
      </g>
      <g id="Group_15" data-name="Group 15" transform="translate(40 26.667)">
        <path id="Path_13" data-name="Path 13" d="M420.987,330.667H415.12L419.653,320H406.32v16h5.334v13.333Z" transform="translate(-406.32 -320)" fill="#15d4a4"/>
        <g id="Group_14" data-name="Group 14">
          <path id="Path_14" data-name="Path 14" d="M420.987,330.667H415.12L419.653,320H406.32v16h5.334v13.333Z" transform="translate(-406.32 -320)" fill="rgba(0,0,0,0)" stroke="rgba(0,0,0,0)" stroke-width="1"/>
        </g>
      </g>
    </g>
  </g>
  <path id="Path_99" data-name="Path 99" d="M145.152,0a3.254,3.254,0,0,0,2.424-1.008,3.433,3.433,0,0,0,.984-2.5,3.433,3.433,0,0,0-.984-2.5,3.254,3.254,0,0,0-2.424-1.008A3.529,3.529,0,0,0,142.584-6a3.407,3.407,0,0,0-1.032,2.544,3.294,3.294,0,0,0,1.032,2.448A3.529,3.529,0,0,0,145.152,0Zm29.184-23.28h-3.264L168.1-18.72V1.056a4.289,4.289,0,0,1-1.752,3.624,7.564,7.564,0,0,1-4.536,1.368,15.142,15.142,0,0,1-3.552-.528,22.432,22.432,0,0,1-3.936-1.536L152.448,8.4A12.351,12.351,0,0,0,154.7,9.528a21.006,21.006,0,0,0,2.688.84,26.626,26.626,0,0,0,2.616.5,15.1,15.1,0,0,0,1.944.168,17.174,17.174,0,0,0,6.48-1.128,9.556,9.556,0,0,0,4.344-3.336,9.246,9.246,0,0,0,1.56-5.472ZM169.392-7.824a15.409,15.409,0,0,1-3.144,2.3,6.572,6.572,0,0,1-3.1.768A5.028,5.028,0,0,1,160.2-5.64a5.472,5.472,0,0,1-1.92-2.424,8.944,8.944,0,0,1-.648-3.5,9.393,9.393,0,0,1,.648-3.624,5.681,5.681,0,0,1,1.9-2.472,4.985,4.985,0,0,1,3.024-.912,7.018,7.018,0,0,1,3.048.7,11.125,11.125,0,0,1,3.192,2.568l1.728-4.224a8.685,8.685,0,0,0-2.04-2.112A11.871,11.871,0,0,0,166.2-23.28a8.543,8.543,0,0,0-3.1-.624,12.469,12.469,0,0,0-6.408,1.56,10.414,10.414,0,0,0-4.08,4.32,13.962,13.962,0,0,0-1.416,6.456,13.7,13.7,0,0,0,1.416,6.384,10.183,10.183,0,0,0,4.056,4.248,12.345,12.345,0,0,0,6.24,1.512,9.2,9.2,0,0,0,3.144-.528,10.362,10.362,0,0,0,2.76-1.512,13.767,13.767,0,0,0,2.352-2.28ZM201.6-23.28h-3.264l-2.976,4.56V1.056a4.289,4.289,0,0,1-1.752,3.624,7.564,7.564,0,0,1-4.536,1.368,15.142,15.142,0,0,1-3.552-.528,22.432,22.432,0,0,1-3.936-1.536L179.712,8.4a12.351,12.351,0,0,0,2.256,1.128,21.006,21.006,0,0,0,2.688.84,26.626,26.626,0,0,0,2.616.5,15.1,15.1,0,0,0,1.944.168,17.174,17.174,0,0,0,6.48-1.128,9.556,9.556,0,0,0,4.344-3.336A9.246,9.246,0,0,0,201.6,1.1ZM196.656-7.824a15.409,15.409,0,0,1-3.144,2.3,6.572,6.572,0,0,1-3.1.768,5.028,5.028,0,0,1-2.952-.888,5.472,5.472,0,0,1-1.92-2.424,8.944,8.944,0,0,1-.648-3.5,9.393,9.393,0,0,1,.648-3.624,5.681,5.681,0,0,1,1.9-2.472,4.985,4.985,0,0,1,3.024-.912,7.018,7.018,0,0,1,3.048.7,11.125,11.125,0,0,1,3.192,2.568l1.728-4.224a8.685,8.685,0,0,0-2.04-2.112,11.871,11.871,0,0,0-2.928-1.632,8.543,8.543,0,0,0-3.1-.624,12.469,12.469,0,0,0-6.408,1.56,10.414,10.414,0,0,0-4.08,4.32,13.962,13.962,0,0,0-1.416,6.456,13.7,13.7,0,0,0,1.416,6.384,10.183,10.183,0,0,0,4.056,4.248,12.345,12.345,0,0,0,6.24,1.512A9.2,9.2,0,0,0,193.32.048a10.362,10.362,0,0,0,2.76-1.512,13.767,13.767,0,0,0,2.352-2.28Z" transform="translate(69.501 42)" fill="rgba(21,212,167,0.5)"/>
  <path id="Path_98" data-name="Path 98" d="M16.464,0a16.355,16.355,0,0,0,8.184-2.088,12.882,12.882,0,0,0,5.088-5.664,20.178,20.178,0,0,0,1.752-8.76,19.84,19.84,0,0,0-1.656-8.328,12.975,12.975,0,0,0-4.968-5.712,15.494,15.494,0,0,0-8.4-2.088H4.08V0Zm.24-27.36a8.049,8.049,0,0,1,4.728,1.3,7.433,7.433,0,0,1,2.712,3.72,17.435,17.435,0,0,1,.864,5.832,16.967,16.967,0,0,1-1.056,6.528,7.287,7.287,0,0,1-3,3.624A9.073,9.073,0,0,1,16.32-5.232H10.272V-27.36ZM42.048,0V-14.208A19.074,19.074,0,0,1,44.9-16.32a18.074,18.074,0,0,1,2.9-1.44,7.138,7.138,0,0,1,2.5-.528L49.056-23.28a6.962,6.962,0,0,0-2.712.624,19.587,19.587,0,0,0-2.856,1.512,17.97,17.97,0,0,0-2.352,1.752L39.072-23.28H35.808V0ZM58.176-6.96a3.379,3.379,0,0,1,.864-2.256,3.107,3.107,0,0,1,2.5-1.008h4.7v3.552a8.655,8.655,0,0,1-2.52,1.728,6.5,6.5,0,0,1-2.616.576,3.063,3.063,0,0,1-1.512-.36,2.838,2.838,0,0,1-1.032-.96A2.321,2.321,0,0,1,58.176-6.96Zm-2.5-9.648A19.938,19.938,0,0,1,58.9-17.664a14.716,14.716,0,0,1,3.552-.48,3.665,3.665,0,0,1,2.712.984,3.824,3.824,0,0,1,1.032,2.712v.048h-4.56a10.349,10.349,0,0,0-6.384,1.944A6.533,6.533,0,0,0,52.8-6.96a7.416,7.416,0,0,0,2.064,5.448Q56.928.576,61.2.576a6.689,6.689,0,0,0,3.288-.864A12.105,12.105,0,0,0,67.344-2.5L68.4,0h4.08V-15.312a7.525,7.525,0,0,0-1.368-4.44A9.3,9.3,0,0,0,67.44-22.8a11.621,11.621,0,0,0-5.088-1.1,16.2,16.2,0,0,0-2.616.288,30.745,30.745,0,0,0-3.24.744,8.747,8.747,0,0,0-2.5,1.08ZM83.808,0V-16.08q.816-.576,1.728-1.248a9.615,9.615,0,0,1,1.92-1.1,5.307,5.307,0,0,1,2.112-.432,2.516,2.516,0,0,1,1.68.528,3.034,3.034,0,0,1,.912,1.512,9.171,9.171,0,0,1,.288,2.52V0h6.24V-15.552a12.944,12.944,0,0,0-.72-4.584,5.666,5.666,0,0,0-2.352-2.9A8.356,8.356,0,0,0,91.2-24.048a10.508,10.508,0,0,0-2.5.36,15.445,15.445,0,0,0-2.976,1.1A24.214,24.214,0,0,0,82.7-20.832L81.648-23.28h-4.08V0ZM98.64-16.08q.816-.576,1.728-1.248a9.615,9.615,0,0,1,1.92-1.1,5.307,5.307,0,0,1,2.112-.432,2.421,2.421,0,0,1,1.656.528,3.279,3.279,0,0,1,.912,1.512,8.5,8.5,0,0,1,.312,2.52V0h6.24V-15.552a12.944,12.944,0,0,0-.72-4.584,5.666,5.666,0,0,0-2.352-2.9,8.356,8.356,0,0,0-4.416-1.008,10.364,10.364,0,0,0-2.52.36,15.652,15.652,0,0,0-2.952,1.1,24.214,24.214,0,0,0-3.024,1.752Zm24.72,9.12a3.379,3.379,0,0,1,.864-2.256,3.107,3.107,0,0,1,2.5-1.008h4.7v3.552a8.655,8.655,0,0,1-2.52,1.728,6.5,6.5,0,0,1-2.616.576,3.063,3.063,0,0,1-1.512-.36,2.838,2.838,0,0,1-1.032-.96A2.321,2.321,0,0,1,123.36-6.96Zm-2.5-9.648a19.938,19.938,0,0,1,3.216-1.056,14.715,14.715,0,0,1,3.552-.48,3.665,3.665,0,0,1,2.712.984,3.824,3.824,0,0,1,1.032,2.712v.048h-4.56a10.349,10.349,0,0,0-6.384,1.944,6.533,6.533,0,0,0-2.448,5.5,7.416,7.416,0,0,0,2.064,5.448Q122.112.576,126.384.576a6.689,6.689,0,0,0,3.288-.864A12.106,12.106,0,0,0,132.528-2.5L133.584,0h4.08V-15.312a7.525,7.525,0,0,0-1.368-4.44,9.3,9.3,0,0,0-3.672-3.048,11.621,11.621,0,0,0-5.088-1.1,16.2,16.2,0,0,0-2.616.288,30.745,30.745,0,0,0-3.24.744,8.747,8.747,0,0,0-2.5,1.08Z" transform="translate(69.501 42)" fill="rgba(21,212,167,1)"/>
</svg>
