<svg xmlns="http://www.w3.org/2000/svg" xmlns:xlink="http://www.w3.org/1999/xlink" width="4806.99" height="1000" viewBox="0 0 4806.99 1000">
  <defs>
    <clipPath id="clip-Signet_5">
      <rect width="4806.99" height="1000"/>
    </clipPath>
  </defs>
  <g id="Signet_5" data-name="Signet – 5" clip-path="url(#clip-Signet_5)">
    <path id="Path_1" data-name="Path 1" d="M0,615H385v385L828,510H680L490,720V510H95Z" fill="#15d4a7"/>
    <path id="Path_2" data-name="Path 2" d="M828,895H443V510L0,1000H148L338,790v210H733Z" transform="translate(172 -510)" fill="#15d4a7"/>
    <path id="Path_5" data-name="Path 5" d="M2683.9,6.97Q2712.06,6.97,2731-12.2t18.944-46.467q0-27.664-18.944-46.65T2683.9-124.3q-27.706,0-46.875,18.986t-19.169,46.65q0,27.3,19.169,46.467T2683.9,6.97Zm307.543,165.071q69.409,0,120.286-22.306t78.5-63.237q27.625-40.93,27.625-96.378v-478.7h-97.706V-408.2h-5.642a164.7,164.7,0,0,0-36.279-47.381,158.036,158.036,0,0,0-50.711-30.541q-28.7-10.754-62.875-10.754-63.409,0-109.156,30.44t-70.541,83.979q-24.794,53.54-24.793,123.265v.9q0,68.812,24.611,121.716t70.091,82.809q45.48,29.906,107.821,29.906,33.693,0,62.393-9.465a156.282,156.282,0,0,0,51.182-28.061,155.81,155.81,0,0,0,37.111-44.967h7.525v95.893q0,49.721-33.89,77.033t-94.48,27.313q-49.117,0-78.326-16.2t-35.176-41.4l-.534-.949h-98.844l-.646,1.11a137.557,137.557,0,0,0,32.6,71.089q26.561,30.686,72.118,47.6T2991.441,172.041Zm-1.616-276.7q-41.422,0-70.326-19.552t-44.124-54.2q-15.22-34.649-15.22-80.048v-.9q0-45.4,15.22-80.332t44.124-54.625q28.9-19.692,70.326-19.692,41.507,0,71.145,19.692t45.593,54.668q15.954,34.975,15.954,80.375v.9q0,45.4-15.954,80.006t-45.593,54.158Q3031.331-104.662,2989.825-104.662Zm522.011,276.7q69.409,0,120.286-22.306t78.5-63.237q27.625-40.93,27.625-96.378v-478.7h-97.706V-408.2H3634.9a164.7,164.7,0,0,0-36.279-47.381,158.036,158.036,0,0,0-50.711-30.541q-28.7-10.754-62.875-10.754-63.409,0-109.156,30.44t-70.541,83.979q-24.794,53.54-24.793,123.265v.9q0,68.812,24.611,121.716t70.091,82.809q45.48,29.906,107.821,29.906,33.693,0,62.393-9.465a156.278,156.278,0,0,0,51.182-28.061,155.807,155.807,0,0,0,37.112-44.967h7.525v95.893q0,49.721-33.89,77.033t-94.48,27.313q-49.117,0-78.326-16.2t-35.176-41.4l-.534-.949h-98.844l-.646,1.11a137.557,137.557,0,0,0,32.6,71.089q26.561,30.686,72.118,47.6T3511.836,172.041Zm-1.616-276.7q-41.422,0-70.327-19.552t-44.124-54.2q-15.22-34.649-15.22-80.048v-.9q0-45.4,15.22-80.332t44.124-54.625q28.9-19.692,70.327-19.692,41.506,0,71.145,19.692t45.593,54.668q15.954,34.975,15.954,80.375v.9q0,45.4-15.954,80.006t-45.593,54.158Q3551.726-104.662,3510.22-104.662Z" transform="translate(1068.737 820.317)" fill="#15d4a7" opacity="0.502"/>
    <path id="Path_6" data-name="Path 6" d="M81.263,0H315.821q96.933,0,165.127-38.408T585.276-149.731q36.135-72.916,36.135-175.99v-.9q0-101.922-36.219-173.994T480.6-610.808q-68.373-38.12-164.779-38.12H81.263ZM182.328-87.2V-561.726H304.571q67.175,0,115.02,27.966t73.236,80.944q25.391,52.978,25.391,127.587v.9q0,75.157-25.085,128.318t-72.888,80.986Q372.442-87.2,304.571-87.2ZM671.484,0H769.19V-291.832q0-35.358,15.838-61.4t44.082-40.424q28.244-14.387,65.569-14.387a243.644,243.644,0,0,1,26.737,1.412q12.789,1.412,25.837,4.153v-90.1a181.9,181.9,0,0,0-18.969-2.976,210.524,210.524,0,0,0-23.789-1.332q-48.688,0-81.636,21.551t-46.144,60.6H769.19v-73.85H671.484Zm448.748,8.3q32.667,0,60.141-9.054a153.08,153.08,0,0,0,49-26.508,150.847,150.847,0,0,0,35.738-42.012h7.526V0h97.045V-334.111q0-51.274-22.31-87.97t-65.187-56.238q-42.877-19.541-104.634-19.541-55.5,0-98.328,16.706t-69.1,46.622q-26.276,29.916-32.158,70.123l-.45,3.274h94.08l.534-1.518q8.868-26.02,34.687-40.256t66.469-14.236q49.306,0,74.328,21.34t25.022,61.694v153.575q0,31.494-16.319,56.494t-44.753,39.564q-28.433,14.563-64.916,14.563-39.3,0-64.916-18.895t-25.616-52.552v-.9q0-32.765,23.719-51.028T1154-214.447l167.158-10.716V-294.1l-180.312,10.877q-58.195,3.31-99.006,21.1t-62.074,49q-21.263,31.216-21.263,74.88v.9q0,44.4,21.112,77.2t57.724,50.62Q1073.954,8.3,1120.231,8.3ZM1420.017,0h97.706V-299.744q0-32.035,13.337-58T1567.7-398.9q23.307-15.2,52.559-15.2,28.767,0,49.868,11.032a77.35,77.35,0,0,1,32.477,31.444q11.376,20.412,11.376,48.372V0H1811.7V-308.928q0-29.547,12.743-53.262A97.728,97.728,0,0,1,1860.309-400q23.125-14.1,54.211-14.1,31.789,0,52.707,11.215a70.266,70.266,0,0,1,31.195,33.465q10.277,22.25,10.277,56.083V0H2106.4V-336.76q0-50.986-18.564-86.948t-53.5-55.058q-34.94-19.095-84.408-19.095A179.837,179.837,0,0,0,1886.943-487a159.478,159.478,0,0,0-51.291,30.464,142.783,142.783,0,0,0-34.459,45.979h-7.526a142.176,142.176,0,0,0-29.923-46.07,133.321,133.321,0,0,0-45.631-30.4q-26.536-10.832-59.7-10.832-48.077,0-82.613,22.12t-50.557,62.32h-7.526v-75.157h-97.706Zm898.028,8.3q32.667,0,60.141-9.054a153.082,153.082,0,0,0,49-26.508,150.851,150.851,0,0,0,35.738-42.012h7.525V0h97.045V-334.111q0-51.274-22.31-87.97T2480-478.32q-42.877-19.541-104.634-19.541-55.5,0-98.328,16.706t-69.1,46.622q-26.276,29.916-32.157,70.123l-.45,3.274h94.08l.534-1.518q8.868-26.02,34.687-40.256t66.469-14.236q49.306,0,74.328,21.34t25.022,61.694v153.575q0,31.494-16.319,56.494t-44.753,39.564q-28.433,14.563-64.916,14.563-39.3,0-64.916-18.895t-25.616-52.552v-.9q0-32.765,23.719-51.028t74.17-21.157l167.158-10.716V-294.1l-180.312,10.877q-58.195,3.31-99.006,21.1t-62.074,49q-21.263,31.216-21.263,74.88v.9q0,44.4,21.112,77.2t57.724,50.62Q2271.768,8.3,2318.046,8.3Z" transform="translate(1068.737 820.317)" fill="#15d4a7"/>
  </g>
</svg>
